<?xml version="1.0" standalone="no"?>
<!DOCTYPE svg PUBLIC "-//W3C//DTD SVG 20010904//EN"
 "http://www.w3.org/TR/2001/REC-SVG-20010904/DTD/svg10.dtd">
<svg version="1.0" xmlns="http://www.w3.org/2000/svg"
 width="51.000000pt" height="32.000000pt" viewBox="0 0 51.000000 32.000000"
 preserveAspectRatio="xMidYMid meet">
<metadata>
Created by potrace 1.16, written by Peter Selinger 2001-2019
</metadata>
<g transform="translate(0.000000,32.000000) scale(0.100000,-0.100000)"
fill="#000000" stroke="none">
<path d="M60 290 c-14 -10 -21 -22 -17 -26 4 -4 16 1 27 11 11 10 23 16 26 12
3 -3 -11 -55 -30 -116 -20 -61 -36 -119 -36 -130 0 -37 45 -36 87 2 22 19 22
19 16 -2 -10 -40 12 -21 25 21 17 53 29 68 54 68 16 0 19 -5 14 -22 -14 -53
-18 -98 -8 -98 9 0 15 24 24 100 2 18 -2 25 -17 28 -45 7 -45 9 -19 82 14 38
24 76 21 83 -2 6 -19 -35 -37 -93 -27 -84 -41 -112 -70 -142 -43 -44 -70 -49
-70 -15 0 25 34 141 50 168 5 9 12 33 15 53 6 31 5 36 -11 36 -11 0 -30 -9
-44 -20z"/>
<path d="M302 113 c-6 -16 -14 -45 -18 -66 -7 -40 1 -46 37 -26 15 7 24 7 34
-1 9 -8 20 -7 40 2 21 9 28 9 34 -1 6 -9 13 -9 34 0 15 7 27 16 27 21 0 5 -9
4 -21 -2 -11 -7 -23 -9 -26 -7 -4 5 8 54 22 90 4 9 3 17 -3 17 -5 0 -13 -16
-16 -35 -8 -39 -68 -97 -74 -69 -2 8 3 35 12 60 8 24 11 42 6 39 -5 -3 -13
-20 -19 -38 -10 -30 -66 -85 -77 -75 -2 3 4 30 15 61 18 57 13 81 -7 30z"/>
<path d="M240 29 c0 -5 5 -7 10 -4 6 3 10 8 10 11 0 2 -4 4 -10 4 -5 0 -10 -5
-10 -11z"/>
</g>
</svg>
