<?xml version="1.0" standalone="no"?>
<!DOCTYPE svg PUBLIC "-//W3C//DTD SVG 20010904//EN"
 "http://www.w3.org/TR/2001/REC-SVG-20010904/DTD/svg10.dtd">
<svg version="1.0" xmlns="http://www.w3.org/2000/svg"
 width="38.000000pt" height="49.000000pt" viewBox="0 0 38.000000 49.000000"
 preserveAspectRatio="xMidYMid meet">
<metadata>
Created by potrace 1.16, written by Peter Selinger 2001-2019
</metadata>
<g transform="translate(0.000000,49.000000) scale(0.100000,-0.100000)"
fill="#000000" stroke="none">
<path d="M193 465 c-18 -8 -33 -10 -33 -5 0 17 -37 11 -61 -10 -29 -23 -18
-26 16 -4 14 9 25 13 25 10 0 -7 -76 -255 -113 -369 -14 -42 -21 -77 -17 -77
5 0 19 33 31 72 30 97 34 101 83 94 23 -3 48 -2 56 4 11 7 3 10 -30 11 -25 1
-51 2 -57 2 -18 -1 -17 6 22 127 27 80 42 112 60 124 48 32 71 17 54 -33 -6
-18 -9 -34 -6 -38 3 -3 11 14 17 37 16 58 0 75 -47 55z"/>
<path d="M200 320 c-6 -23 -9 -44 -6 -47 2 -3 10 14 16 37 6 23 9 44 6 47 -2
3 -10 -14 -16 -37z"/>
<path d="M241 166 c-23 -72 -41 -135 -41 -141 0 -25 20 17 39 83 l22 72 47 1
47 1 -38 8 c-49 9 -52 14 -37 50 13 32 37 50 65 50 13 0 15 -8 11 -37 -4 -30
-4 -33 3 -13 19 53 15 60 -33 59 l-44 -2 -41 -131z"/>
</g>
</svg>
